# xmcd CD database file
#
# Track frame offsets:
#	150
#	13840
#	47627
#	77525
#	98195
#	120145
#	137035
#	167195
#	184790
#	224052
#	246192
#
# Disc length: 3664 seconds
#
# Revision: 1
# Processed by: cddbd v1.5.2PL0 Copyright (c) Steve Scherf et al.
# Submitted via: CDex 1.70beta2
#
DISCID=920e4e0b
DTITLE=Various Artist - Groove and Smooth and Jazz =Blue Note
DYEAR=2000
DGENRE=Jazz
TTITLE0=Note Bleu - Medeski Martin and Wood
TTITLE1=Carlos - John Scofield
TTITLE2=Rendezvous Avec La Verite - Charlie Hunter
TTITLE3=Put It Where You Want It - Everette Harp
TTITLE4=Ain't Nothing Like The Real Thing - Richard Elliott
TTITLE5=Summer Samba - Patricia Barber
TTITLE6=Dream - Bill Charlap
TTITLE7=If You Could See Me Now - Joe Lovano
TTITLE8=Nature Boy - Greg Osby
TTITLE9=Creepin - Don Byron
TTITLE10=The Legend Of Johnny Cactus - Supergenerous
EXTD=YEAR: 2000
EXTT0=
EXTT1=
EXTT2=
EXTT3=
EXTT4=
EXTT5=
EXTT6=
EXTT7=
EXTT8=
EXTT9=
EXTT10=
PLAYORDER=
